<svg width="600" height="400" viewBox="0 0 600 400" fill="none" xmlns="http://www.w3.org/2000/svg">
<rect width="600" height="400" fill="#D9D9D9"/>
<path d="M55 53H355" stroke="black" stroke-width="10" stroke-linecap="round"/>
<line x1="100" x2="100" y1="200" y2="200" stroke="red"></line>
<path d="M223.033 197.856C214.787 185.632 202.892 176.323 189.044 171.259C175.195 166.194 160.101 165.632 145.914 169.652C131.728 173.673 119.173 182.07 110.041 193.647C100.908 205.225 95.6653 219.39 95.0593 234.123C94.4532 248.856 98.5151 263.404 106.666 275.692C114.816 287.98 126.639 297.381 140.447 302.553C154.256 307.725 169.345 308.404 183.563 304.494C197.78 300.584 210.4 292.284 219.622 280.778L165 237L223.033 197.856Z" fill="#E93B3B"/>
<ellipse cx="432.5" cy="243" rx="102.5" ry="43" fill="#D7D72F" stroke="tomato" stroke-width="5px" stroke-dasharray="12px"/>
<path d="M504 24L557.694 104.25H450.306L504 24Z" fill="#D916F3"/>
</svg>
